<?xml version="1.0" standalone="no"?>
<!DOCTYPE svg PUBLIC "-//W3C//DTD SVG 20010904//EN"
 "http://www.w3.org/TR/2001/REC-SVG-20010904/DTD/svg10.dtd">
<svg version="1.0" xmlns="http://www.w3.org/2000/svg"
 width="200.000000pt" height="251.000000pt" viewBox="0 0 200.000000 251.000000"
 preserveAspectRatio="xMidYMid meet">

<g transform="translate(0.000000,251.000000) scale(0.100000,-0.100000)"
fill="#000000" stroke="none">
<path d="M0 2311 l0 -200 42 -19 c24 -11 59 -33 78 -50 19 -18 44 -32 56 -32
11 0 34 -7 50 -15 l30 -14 -113 -115 c-107 -110 -112 -117 -106 -150 4 -27 1
-36 -15 -45 -19 -10 -20 -20 -20 -228 0 -162 2 -209 10 -183 5 19 14 43 19 52
5 10 9 25 9 33 0 8 9 34 19 58 10 23 25 57 32 75 8 17 19 32 25 32 6 0 28 16
48 35 21 19 48 35 61 35 16 0 34 14 57 42 39 50 88 98 99 98 5 0 6 7 3 15 -4
8 -1 15 6 15 6 0 8 5 5 10 -9 14 3 13 60 -8 l50 -18 55 29 c39 21 71 30 110
32 30 1 63 5 72 9 13 6 19 0 27 -26 9 -28 10 -25 5 22 -7 64 2 62 22 -7 13
-46 14 -47 9 -8 -3 22 -8 52 -11 68 -4 19 -2 27 8 27 10 0 20 -26 32 -75 18
-75 35 -105 61 -105 15 0 13 114 -4 170 -13 42 -13 40 -1 40 6 0 17 -15 25
-32 l14 -33 -2 35 c-4 62 15 47 39 -30 12 -41 23 -68 23 -60 1 8 -5 35 -13 60
-23 78 -27 100 -17 100 5 0 14 -12 20 -27 10 -27 10 -26 5 7 -3 22 0 42 9 55
14 18 16 16 32 -38 9 -32 19 -56 22 -53 3 2 0 20 -5 38 -18 60 -23 88 -13 88
5 0 14 -12 20 -27 l11 -28 -4 32 c-4 22 -1 33 10 37 21 8 34 -1 34 -24 0 -10
4 -21 9 -25 6 -3 6 7 0 27 -5 21 -5 36 1 42 7 7 10 6 10 -2 0 -7 5 -12 11 -12
5 0 8 4 4 9 -3 6 4 15 15 21 16 9 20 8 21 -7 1 -10 4 -4 8 12 7 29 7 29 19
-17 7 -27 17 -48 23 -48 7 0 8 7 4 18 -20 47 -23 81 -7 87 19 7 15 14 46 -82
15 -46 32 -83 38 -83 6 0 7 8 3 18 -16 39 -45 136 -45 148 0 35 18 8 40 -58
24 -76 40 -81 19 -6 -7 24 -13 48 -14 53 0 6 -4 13 -8 16 -12 9 3 37 23 42 21
5 34 -15 19 -30 -12 -12 9 -65 22 -57 5 3 9 -4 9 -15 0 -12 5 -21 10 -21 13 0
13 4 -6 48 -32 75 -23 127 27 144 15 5 28 108 17 137 -10 29 -65 60 -97 56
-14 -2 -26 -4 -26 -5 0 -1 -20 -3 -44 -5 -23 -2 -77 -9 -118 -15 -109 -15
-113 -14 -75 16 27 22 62 71 62 88 0 2 -252 5 -560 5 l-560 2 0 -200z m520
119 c0 -5 -5 -10 -11 -10 -5 0 -7 5 -4 10 3 6 8 10 11 10 2 0 4 -4 4 -10z
m733 -105 c18 -13 18 -14 0 -23 -25 -13 -83 -23 -82 -14 3 19 -2 25 -11 12 -5
-8 -12 -11 -16 -7 -16 16 13 29 37 16 21 -11 23 -11 11 3 -10 13 -10 17 0 21
23 9 42 7 61 -8z m-233 -55 c0 -5 -7 -10 -15 -10 -8 0 -15 5 -15 10 0 6 7 10
15 10 8 0 15 -4 15 -10z m-116 -46 c4 -12 2 -15 -9 -10 -8 3 -15 1 -15 -3 0
-5 6 -12 13 -14 8 -4 7 -6 -3 -6 -9 -1 -21 4 -28 11 -9 9 -6 14 11 24 12 7 23
12 23 13 1 1 5 -6 8 -15z m-67 -10 c-3 -3 -12 -4 -19 -1 -8 3 -5 6 6 6 11 1
17 -2 13 -5z m113 -84 c0 -6 11 -8 24 -4 13 3 27 1 31 -6 5 -8 -8 -10 -46 -8
-54 3 -79 22 -34 26 14 1 25 -3 25 -8z m-76 -316 c9 -39 18 -79 22 -88 3 -9 1
-16 -4 -16 -6 0 -14 17 -17 38 -3 20 -10 53 -15 72 -5 19 -12 46 -16 60 -4 17
-3 22 4 15 5 -5 17 -42 26 -81z m13 14 c-3 -8 -6 -5 -6 6 -1 11 2 17 5 13 3
-3 4 -12 1 -19z m-577 -26 c0 -13 -69 -76 -75 -70 -4 3 9 22 27 42 32 35 48
44 48 28z m587 -14 c-3 -8 -6 -5 -6 6 -1 11 2 17 5 13 3 -3 4 -12 1 -19z
m-709 -113 c-15 -14 -30 -25 -34 -25 -4 0 3 11 16 25 13 14 28 25 34 25 6 0
-1 -11 -16 -25z"/>
<path d="M1913 2496 c16 -12 53 -120 63 -185 12 -77 25 -27 22 85 l-3 109 -48
1 c-37 2 -45 -1 -34 -10z"/>
<path d="M1995 1630 c0 -349 1 -492 2 -317 2 174 2 460 0 635 -1 174 -2 31 -2
-318z"/>
<path d="M1385 2010 c9 -31 25 -50 25 -29 0 7 -8 23 -16 34 -16 19 -16 19 -9
-5z"/>
<path d="M1337 1983 c-12 -11 -8 -30 7 -30 8 0 11 8 8 19 -5 20 -6 21 -15 11z"/>
<path d="M1311 1922 c-2 -24 21 -102 31 -108 6 -4 8 2 4 14 -4 11 -9 29 -11
39 -6 29 -24 69 -24 55z"/>
<path d="M1350 1918 c1 -16 24 -48 36 -48 4 0 3 5 -4 12 -7 7 -12 20 -12 30 0
10 -4 18 -10 18 -5 0 -10 -6 -10 -12z"/>
<path d="M991 1874 c0 -11 3 -14 6 -6 3 7 2 16 -1 19 -3 4 -6 -2 -5 -13z"/>
<path d="M932 1830 c0 -8 4 -26 8 -40 6 -20 8 -21 8 -5 0 11 -3 29 -8 40 -5
12 -8 14 -8 5z"/>
<path d="M1065 1809 c4 -28 2 -38 -11 -43 -20 -8 -18 -9 -33 29 -11 30 -11 30
-6 -7 4 -23 2 -38 -5 -38 -5 0 -10 6 -11 13 0 6 -4 2 -9 -10 -5 -13 -14 -23
-19 -23 -6 0 -8 7 -5 15 4 8 1 15 -5 15 -6 0 -11 -10 -11 -23 0 -30 -55 -74
-64 -52 -8 23 -28 18 -21 -5 10 -33 -4 -60 -30 -60 -26 0 -27 3 -40 84 -11 66
-15 33 -4 -39 8 -56 7 -70 -5 -77 -7 -4 -33 -45 -56 -90 -23 -46 -48 -90 -55
-98 -7 -8 -19 -34 -27 -57 -7 -24 -17 -43 -21 -43 -22 0 -135 -86 -164 -123
-18 -23 -43 -54 -56 -68 -14 -14 -32 -40 -41 -57 -9 -17 -29 -51 -46 -75 -16
-25 -30 -50 -30 -56 0 -6 -4 -19 -9 -29 -27 -56 -47 -89 -62 -105 -31 -34 -72
-131 -79 -189 -8 -69 -39 -109 -100 -127 l-40 -12 0 -229 0 -230 563 0 c523 0
564 1 578 18 8 9 15 22 15 27 0 6 14 16 30 24 16 8 37 18 46 23 26 12 26 12
33 -42 l7 -50 109 0 109 0 0 48 c0 26 5 108 11 182 11 141 22 174 86 268 36
54 40 98 12 128 l-24 25 33 59 c37 68 40 95 12 112 -11 7 -20 18 -20 25 0 6
-11 20 -25 31 -19 15 -27 35 -36 91 -9 53 -9 75 -1 83 7 7 9 28 5 56 -4 33 -3
43 5 38 7 -4 15 0 18 9 6 13 9 13 24 -4 12 -14 20 -17 27 -10 6 6 13 7 15 2 8
-14 27 -86 40 -151 19 -97 30 -42 13 65 -13 79 -20 234 -8 191 2 -10 9 -18 14
-18 5 0 9 -17 10 -37 1 -21 5 -49 10 -63 6 -17 7 -4 4 40 l-5 65 15 -64 c14
-63 25 -89 25 -60 0 23 -38 218 -51 264 -7 22 -11 71 -10 108 l2 69 -42 39
c-23 21 -37 39 -31 39 7 0 12 7 12 15 0 9 -17 19 -46 26 -25 7 -55 21 -65 33
-11 11 -26 21 -33 21 -8 0 -30 14 -49 32 -23 21 -37 28 -41 20 -3 -9 -7 -9
-14 1 -5 8 -12 13 -16 13 -3 -1 -7 -1 -8 0 -50 16 -189 18 -227 3 -45 -19 -47
-19 -59 19 l-12 32 5 -36z m228 -237 c18 -18 27 -39 27 -59 0 -38 15 -50 38
-31 15 12 16 11 3 -4 -11 -15 -11 -19 3 -24 9 -3 16 -12 16 -18 0 -9 15 -11
53 -8 49 4 55 2 71 -23 16 -25 16 -28 1 -45 -15 -17 -15 -19 2 -23 17 -4 17
-5 -2 -13 -11 -5 -20 -18 -20 -29 0 -11 -10 -24 -23 -30 -12 -5 -20 -16 -17
-22 2 -7 0 -13 -5 -13 -6 0 -10 5 -10 10 0 6 -11 10 -24 10 -32 0 -40 14 -24
39 20 32 -23 140 -55 141 -4 0 -3 -9 3 -20 6 -10 8 -37 4 -59 -5 -31 -11 -40
-31 -44 -19 -4 -27 1 -34 21 l-10 25 -16 -22 c-12 -18 -13 -25 -3 -31 7 -4 10
-12 6 -18 -3 -6 -2 -13 4 -17 5 -3 10 1 10 9 0 9 5 16 11 16 6 0 8 -7 5 -16
-3 -9 -6 -21 -6 -26 0 -6 -3 -9 -6 -5 -3 3 -18 -5 -32 -19 -15 -13 -35 -24
-44 -24 -29 0 -21 -17 13 -29 21 -7 37 -7 49 -1 21 11 70 13 94 4 46 -18 -10
-64 -76 -64 -52 0 -90 -13 -99 -34 -7 -15 -8 -7 -4 27 5 37 3 47 -8 47 -16 0
-46 -56 -48 -87 -1 -13 -3 -11 -9 7 -11 35 -12 50 -1 48 5 -2 9 0 10 5 3 21 0
28 -9 22 -5 -3 -10 -2 -10 3 0 5 -11 21 -25 36 -31 34 -34 77 -5 69 22 -6 28
15 9 34 -15 15 0 62 24 74 15 9 17 13 6 20 -22 13 -4 21 51 23 l52 1 -7 40
c-3 21 -14 53 -25 70 -16 27 -17 33 -4 58 13 23 21 27 57 27 34 0 49 -6 70
-28z m-176 -148 c-3 -3 -12 -4 -19 -1 -8 3 -5 6 6 6 11 1 17 -2 13 -5z m-388
-95 c-22 -14 -33 -10 -19 6 7 8 17 12 22 9 6 -4 5 -10 -3 -15z m35 -53 c-3
-15 -8 -25 -11 -23 -2 3 -1 17 3 31 3 15 8 25 11 23 2 -3 1 -17 -3 -31z m-79
-53 c3 -13 1 -31 -4 -41 -9 -14 -10 -12 -11 12 0 28 0 29 -20 11 -27 -24 -32
-17 -19 28 9 33 12 35 29 25 10 -7 21 -23 25 -35z m152 0 c-3 -10 -5 -2 -5 17
0 19 2 27 5 18 2 -10 2 -26 0 -35z m563 -68 c0 -9 -6 -12 -15 -9 -8 4 -15 10
-15 15 0 5 7 9 15 9 8 0 15 -7 15 -15z m-740 -71 c0 -48 -3 -64 -12 -61 -7 2
-11 11 -9 18 7 31 10 45 10 77 2 61 11 32 11 -34z m110 10 c0 -16 -16 -19 -25
-4 -8 13 4 32 16 25 5 -4 9 -13 9 -21z m303 -5 c-4 -16 -8 -17 -14 -7 -13 19
-11 28 5 28 9 0 12 -7 9 -21z m-498 -489 c-3 -4 0 -10 7 -12 6 -2 9 -11 5 -20
-5 -14 -11 -15 -44 -5 -44 13 -59 29 -35 38 26 9 73 9 67 -1z m63 -35 c-2 -25
-4 -45 -5 -45 -1 0 -10 14 -19 32 -15 30 -15 32 2 45 25 18 24 18 22 -32z m27
36 c3 -5 1 -12 -5 -16 -5 -3 -10 1 -10 9 0 18 6 21 15 7z m105 -26 c0 -8 6
-15 14 -15 9 0 12 -7 9 -20 -3 -12 -2 -20 3 -18 10 3 14 -5 13 -29 0 -15 -2
-15 -9 2 -7 18 -8 18 -15 -7 -11 -41 -29 -35 -22 7 3 19 2 35 -3 35 -5 0 -16
3 -26 7 -14 5 -16 2 -12 -15 4 -12 2 -22 -3 -22 -5 0 -9 11 -9 25 0 14 -7 28
-15 31 -8 4 -15 12 -15 20 0 10 13 14 45 14 33 0 45 -4 45 -15z m-100 -29 c0
-3 -4 -8 -10 -11 -5 -3 -10 -1 -10 4 0 6 5 11 10 11 6 0 10 -2 10 -4z m40 -60
c0 -2 -7 -7 -16 -10 -8 -3 -12 -2 -9 4 6 10 25 14 25 6z m-50 -41 c0 -8 -7
-15 -15 -15 -8 0 -15 7 -15 15 0 8 7 15 15 15 8 0 15 -7 15 -15z"/>
<path d="M1158 1233 c7 -3 16 -2 19 1 4 3 -2 6 -13 5 -11 0 -14 -3 -6 -6z"/>
<path d="M1200 1230 c0 -5 5 -10 11 -10 5 0 7 5 4 10 -3 6 -8 10 -11 10 -2 0
-4 -4 -4 -10z"/>
<path d="M810 1720 c0 -8 5 -22 10 -30 9 -13 10 -13 10 0 0 8 -5 22 -10 30 -9
13 -10 13 -10 0z"/>
<path d="M827 1650 c3 -11 7 -20 9 -20 2 0 4 9 4 20 0 11 -4 20 -9 20 -5 0 -7
-9 -4 -20z"/>
<path d="M1992 960 c0 -19 2 -27 5 -17 2 9 2 25 0 35 -3 9 -5 1 -5 -18z"/>
<path d="M1995 455 c0 -253 1 -355 2 -227 2 128 2 335 0 460 -1 125 -2 20 -2
-233z"/>
</g>
</svg>
